<?xml version="1.0" standalone="no"?>
<!DOCTYPE svg PUBLIC "-//W3C//DTD SVG 20010904//EN"
 "http://www.w3.org/TR/2001/REC-SVG-20010904/DTD/svg10.dtd">
<svg version="1.0" xmlns="http://www.w3.org/2000/svg"
 width="277.000000pt" height="182.000000pt" viewBox="0 0 277.000000 182.000000"
 preserveAspectRatio="xMidYMid meet">

<g transform="translate(0.000000,182.000000) scale(0.100000,-0.100000)"
fill="#000000" stroke="none">
<path d="M1190 1760 c-8 -16 -8 -20 4 -20 16 0 29 27 16 35 -5 3 -14 -4 -20
-15z"/>
<path d="M1230 1755 c-10 -12 -9 -16 3 -21 22 -8 50 -1 55 14 2 7 -2 10 -12 6
-9 -3 -16 -1 -16 5 0 16 -15 14 -30 -4z"/>
<path d="M1320 1735 c-8 -10 -9 -15 -1 -15 6 0 11 -4 11 -10 0 -5 -7 -10 -15
-10 -8 0 -24 -6 -36 -12 -17 -11 -22 -10 -35 6 -8 11 -14 15 -14 10 0 -6 -14
-9 -31 -6 -21 3 -40 -2 -59 -17 -16 -11 -33 -21 -38 -21 -5 0 -15 -7 -22 -15
-14 -17 0 -21 17 -4 8 8 17 8 30 1 13 -8 23 -6 37 6 13 11 20 13 23 6 2 -7 14
-10 26 -7 20 4 19 2 -7 -22 -23 -21 -26 -29 -15 -35 24 -15 0 -25 -64 -25 -61
0 -62 -1 -78 -35 -20 -42 -15 -63 15 -54 11 4 18 3 13 -1 -4 -5 0 -18 8 -31
12 -19 12 -23 0 -28 -19 -7 -19 -23 -1 -42 18 -18 26 -18 26 0 0 7 7 19 15 26
15 13 65 0 133 -33 16 -8 28 -8 40 -1 12 8 23 7 43 -4 24 -15 28 -14 49 6 12
11 23 32 23 46 0 15 6 26 18 29 13 4 19 14 19 34 0 15 2 61 4 101 3 54 0 77
-11 87 -21 22 -31 19 -48 -15 -17 -33 -19 -34 -45 -20 -15 8 -17 15 -10 40 5
16 6 30 2 31 -4 0 1 4 11 8 18 6 17 7 -1 24 -17 16 -21 16 -32 2z m-210 -189
c0 -2 -7 -7 -16 -10 -8 -3 -12 -2 -9 4 6 10 25 14 25 6z m25 -35 c-15 -14 -55
-23 -55 -13 0 15 12 22 39 22 15 0 21 -4 16 -9z"/>
<path d="M1093 1616 c-31 -29 -29 -35 8 -27 34 7 36 10 23 32 -8 14 -11 14
-31 -5z"/>
<path d="M1138 1343 c7 -3 16 -2 19 1 4 3 -2 6 -13 5 -11 0 -14 -3 -6 -6z"/>
<path d="M1020 1294 c-54 -49 -73 -84 -100 -184 -12 -47 -31 -112 -41 -144
-11 -35 -19 -89 -19 -129 0 -53 -5 -78 -21 -103 -11 -19 -22 -34 -24 -34 -2 0
-3 72 -1 160 1 88 -1 155 -6 148 -13 -20 -30 -87 -39 -153 -13 -94 -21 -125
-31 -125 -6 0 -8 -7 -4 -15 3 -9 -3 -20 -14 -27 -11 -7 -20 -21 -20 -30 0 -28
-27 -124 -49 -173 -15 -34 -25 -45 -43 -46 -22 0 -22 -1 -3 -9 l20 -8 -20 -7
c-47 -16 -49 -16 -35 0 8 10 9 15 2 15 -14 0 -32 -32 -32 -56 0 -16 3 -15 20
4 24 26 39 27 65 8 19 -14 18 -15 -12 -32 -27 -16 -30 -22 -26 -50 3 -18 0
-34 -6 -38 -6 -4 -11 -2 -11 3 0 22 -18 10 -24 -15 -7 -27 5 -41 61 -71 19
-10 24 -8 37 11 8 13 18 40 22 61 4 21 14 45 23 54 9 9 34 52 56 96 l40 80 5
-82 c5 -77 19 -124 21 -72 3 55 7 99 18 184 6 50 11 98 11 107 0 17 24 29 68
34 22 2 92 -21 92 -31 0 -3 -17 -20 -37 -40 -28 -25 -33 -35 -20 -35 9 0 17 5
17 10 0 6 9 10 20 10 14 0 20 -7 20 -24 0 -18 -8 -27 -32 -36 -30 -11 -31 -13
-13 -20 18 -7 16 -9 -15 -23 -26 -11 -30 -16 -14 -16 11 -1 25 4 30 9 6 6 18
8 28 4 13 -5 14 -9 5 -20 -6 -8 -17 -14 -23 -14 -6 0 -20 -8 -31 -17 -19 -15
-18 -15 14 -9 33 6 33 5 18 -12 -20 -22 -22 -49 -4 -55 9 -3 9 -8 -2 -21 -12
-14 -12 -21 -1 -41 10 -19 11 -31 3 -47 -19 -39 -26 -62 -24 -75 1 -7 -5 -13
-13 -13 -10 0 -13 -6 -9 -16 3 -8 12 -13 21 -9 11 4 12 2 5 -7 -5 -7 -9 -26
-8 -43 1 -16 3 -38 4 -47 1 -16 13 -18 112 -18 69 0 108 4 104 10 -3 5 -10 51
-15 102 -5 51 -13 113 -19 138 -13 61 -30 264 -31 367 0 12 -5 25 -10 28 -6 3
-10 15 -10 26 0 10 -5 19 -10 19 -6 0 -9 12 -6 28 2 15 5 30 5 35 1 11 39 9
46 -3 4 -6 11 -8 16 -5 17 11 31 -6 17 -22 -17 -21 -22 -133 -6 -133 9 0 9 -3
1 -11 -9 -9 -8 -15 2 -25 19 -20 30 -17 14 3 -10 12 -11 17 -2 20 7 2 9 11 6
19 -3 8 -1 14 5 14 14 0 23 -86 12 -116 -13 -32 -10 -95 5 -100 6 -3 9 -24 6
-50 -2 -35 0 -45 9 -39 9 6 9 3 1 -14 -9 -17 -9 -24 2 -35 10 -10 12 -28 7
-67 -4 -30 -5 -84 -2 -121 l5 -67 227 -1 c205 -1 228 1 234 16 4 11 -1 26 -14
39 -25 26 -25 35 -1 82 11 21 22 54 25 74 8 56 13 62 68 89 65 32 98 57 98 76
0 8 32 77 70 155 68 134 75 159 46 159 -9 0 -12 9 -8 25 3 20 1 24 -12 19 -9
-3 -28 1 -42 11 -24 15 -27 15 -44 0 -10 -9 -44 -23 -77 -31 -85 -22 -112 -34
-118 -55 -4 -12 -16 -19 -32 -19 -17 0 -39 -13 -64 -40 l-38 -39 -6 57 c-3 31
-11 97 -17 146 -15 131 4 226 45 226 5 0 50 -28 101 -63 213 -147 277 -173
546 -223 l94 -17 26 31 c44 53 129 105 191 116 19 3 44 13 55 22 18 15 17 15
-16 10 l-35 -5 43 20 c56 26 50 32 -13 14 -61 -19 -69 -12 -17 14 36 18 62 41
48 41 -3 0 -29 -11 -58 -24 -29 -13 -64 -27 -78 -31 -30 -9 -90 -52 -90 -66 0
-5 11 -9 25 -9 17 0 23 -4 19 -15 -4 -9 -16 -13 -35 -11 -16 2 -32 0 -35 -5
-2 -4 -11 -6 -19 -2 -23 8 -18 50 7 67 12 9 17 16 11 16 -6 0 -18 3 -26 6 -10
3 -22 -6 -33 -25 -17 -29 -21 -31 -69 -27 -27 3 -62 5 -77 5 -20 1 -26 5 -22
16 7 18 0 19 -27 4 -24 -12 -51 4 -42 27 7 18 -1 18 -36 0 -28 -15 -54 -16
-67 -3 -4 4 -3 7 3 7 5 0 15 11 21 25 6 13 25 31 42 40 33 17 38 30 14 39 -8
3 -12 2 -9 -4 3 -6 -1 -10 -9 -10 -8 0 -19 -8 -24 -17 -16 -28 -152 -59 -152
-34 0 11 109 81 127 81 6 0 15 4 18 10 5 8 -89 13 -193 11 -12 -1 -31 8 -42
19 -22 22 -27 44 -7 37 6 -2 11 -10 9 -16 -3 -14 15 -15 23 -1 4 6 11 8 16 4
6 -3 27 -3 47 1 30 6 33 8 19 16 -10 6 -27 7 -38 4 -18 -6 -20 -4 -14 14 5 17
2 21 -14 21 -11 0 -23 5 -26 10 -3 6 -23 10 -43 11 l-37 1 28 11 c15 6 27 15
27 19 0 5 -19 20 -43 35 -24 14 -48 35 -53 47 -13 30 -48 28 -52 -4 -4 -30
-21 -51 -23 -30 -1 8 -2 24 -3 35 -1 13 -11 21 -33 26 -28 5 -36 2 -55 -21
-20 -26 -23 -27 -36 -12 -12 15 -12 14 -6 -7 4 -14 2 -21 -4 -17 -5 3 -15 -1
-22 -9 -10 -12 -9 -15 4 -15 9 0 16 -2 16 -5 0 -9 -24 -55 -29 -56 -37 -5 -48
-4 -45 5 12 36 11 65 -2 70 -9 3 -12 10 -9 16 3 5 2 10 -4 10 -15 0 -24 -38
-27 -120 -3 -83 -22 -167 -40 -174 -7 -3 -9 5 -6 20 2 13 1 36 -3 51 -6 26 -7
27 -17 8 -6 -11 -20 -28 -32 -37 l-21 -18 23 0 c18 0 22 -6 22 -29 0 -32 -10
-43 -44 -46 -11 -1 -25 -3 -29 -4 -5 0 1 -14 12 -30 l21 -29 -24 -16 c-14 -8
-44 -19 -68 -22 -24 -4 -49 -11 -55 -16 -16 -13 -28 13 -20 42 3 11 1 20 -4
20 -6 0 -5 9 2 21 6 13 7 19 1 15 -10 -6 -24 105 -21 164 1 14 -3 39 -8 55 -7
21 -5 44 5 78 17 62 24 57 9 -6 -9 -40 -8 -50 4 -57 11 -8 15 1 20 48 7 68 13
85 52 135 37 47 19 48 -33 1z m613 -121 c-13 -2 -33 -2 -45 0 -13 2 -3 4 22 4
25 0 35 -2 23 -4z m645 -328 c-6 -14 -15 -25 -20 -25 -9 0 -4 14 15 38 15 19
18 14 5 -13z m-1238 -135 c0 -15 5 -31 12 -38 7 -7 8 -12 4 -12 -17 0 -35 36
-36 70 0 26 3 31 10 20 5 -8 10 -26 10 -40z m-410 -451 c0 -11 -4 -17 -10 -14
-5 3 -10 13 -10 21 0 8 5 14 10 14 6 0 10 -9 10 -21z"/>
<path d="M1123 1320 c-13 -5 -23 -12 -23 -15 0 -4 5 -3 10 0 6 4 41 10 78 15
l67 7 -55 1 c-30 0 -65 -3 -77 -8z"/>
<path d="M1167 1206 c-4 -10 -1 -13 9 -9 15 6 19 23 5 23 -5 0 -11 -7 -14 -14z"/>
<path d="M1220 1185 c0 -8 -11 -17 -24 -21 -13 -3 -39 -21 -57 -40 l-33 -34
36 12 c47 17 88 53 88 78 0 11 -2 20 -5 20 -3 0 -5 -7 -5 -15z"/>
<path d="M1091 1127 c-6 -8 -8 -16 -5 -20 3 -3 -6 -13 -20 -23 -33 -21 -28
-29 8 -13 14 7 26 20 26 29 0 9 5 21 12 28 8 8 8 12 1 12 -6 0 -16 -6 -22 -13z"/>
<path d="M1025 950 c-7 -12 19 -12 55 0 22 7 21 8 -12 9 -20 1 -40 -3 -43 -9z"/>
<path d="M2030 950 c0 -5 4 -10 9 -10 6 0 13 5 16 10 3 6 -1 10 -9 10 -9 0
-16 -4 -16 -10z"/>
<path d="M2065 930 c-3 -5 -2 -10 4 -10 5 0 13 5 16 10 3 6 2 10 -4 10 -5 0
-13 -4 -16 -10z"/>
<path d="M1956 914 c-10 -25 1 -29 14 -5 6 12 7 21 1 21 -5 0 -12 -7 -15 -16z"/>
<path d="M1020 866 c0 -10 13 -14 45 -14 25 1 48 5 51 9 3 5 -2 6 -10 3 -9 -3
-16 -1 -16 5 0 6 -16 11 -35 11 -23 0 -35 -5 -35 -14z"/>
<path d="M1098 823 c7 -3 16 -2 19 1 4 3 -2 6 -13 5 -11 0 -14 -3 -6 -6z"/>
<path d="M938 613 c7 -3 16 -2 19 1 4 3 -2 6 -13 5 -11 0 -14 -3 -6 -6z"/>
<path d="M1121 334 c0 -11 3 -14 6 -6 3 7 2 16 -1 19 -3 4 -6 -2 -5 -13z"/>
<path d="M545 300 c3 -5 8 -10 11 -10 2 0 4 5 4 10 0 6 -5 10 -11 10 -5 0 -7
-4 -4 -10z"/>
<path d="M800 52 c0 -41 3 -52 16 -52 11 0 14 6 9 20 -3 11 -9 32 -11 47 -8
46 -14 39 -14 -15z"/>
</g>
</svg>
